<svg width="64" height="64" viewBox="0 0 64 64" fill="none" xmlns="http://www.w3.org/2000/svg">
<rect width="64" height="64" rx="8" fill="#696EEC"/>
<path d="M25.3351 34.3948C25.3351 30.6437 28.5823 27.6029 32.6153 27.6029H42.3196C46.3404 27.6029 49.5999 30.6565 49.5999 34.3948V48H32.6153C28.5945 48 25.3351 44.9463 25.3351 41.2081V34.3948ZM39.894 36.6683V38.9346H42.3204V36.6683H39.894ZM32.6145 36.6683V38.9346H35.041V36.6683H32.6145Z" fill="white"/>
<path d="M22.5713 48H14.3999V16H16.3754L19.0693 19.7946C20.3863 18.5994 21.8829 17.6832 23.5591 17.0458C25.2353 16.3884 26.9713 16.0598 28.7673 16.0598H35.9809V24.1867H28.7673C27.9092 24.1867 27.101 24.3461 26.3428 24.6648C25.5845 24.9835 24.926 25.4217 24.3672 25.9795C23.8085 26.5372 23.3695 27.1945 23.0502 27.9514C22.731 28.7084 22.5713 29.5151 22.5713 30.3716V48Z" fill="white"/>
</svg>
